# xmcd
#
# Track frame offsets: 
#        150
#        12966
#        23172
#        37823
#        48603
#        61646
#        73170
#        84994
#        97800
#        109299
#        122659
#        131920
#        143803
#        155490
#        170017
#
# Disc length: 2424 seconds
#
# Revision: 0
# Processed by: cddbd v1.5.2PL0 Copyright (c) Steve Scherf et al.
# Submitted via: ExactAudioCopy v1.1
#
DISCID=c509760f
DTITLE=Various Artist - Various ‎– Simply Blues
DYEAR=2012
DGENRE=Blues
TTITLE0=Big Mama Thornton - Hound Dog
TTITLE1=Cecil Gant - We're Gonna Rock
TTITLE2=Stick McGhee - Drinkin' Wine Spo-De-O-Dee
TTITLE3=Little Junior's Blue Flames - Mystery Train
TTITLE4=Arthur "Big Boy" Crudup - That's Allright Mama
TTITLE5=Smiley Lewis - I Hear You Knockin'
TTITLE6=Fats Domino - The Fat Man
TTITLE7=Ike Turner Featuring Jackie Brenston - Rocket 88
TTITLE8=Lloyd Price - Lawdy Miss Clawdy
TTITLE9=Etta James - Roll With Me Henry
TTITLE10=Roy Brown - Let The Four Winds Blow
TTITLE11=Wynonie Harris - All She Wants To Do Is Rock
TTITLE12=Jimmy Preston - Rock The Joint
TTITLE13=Ruth Brown - 5 10 15 Hours
TTITLE14=Ernest Tubb - Walking The Floor Over You
EXTD=
EXTT0=
EXTT1=
EXTT2=
EXTT3=
EXTT4=
EXTT5=
EXTT6=
EXTT7=
EXTT8=
EXTT9=
EXTT10=
EXTT11=
EXTT12=
EXTT13=
EXTT14=
PLAYORDER=
